
        <svg xmlns="http://www.w3.org/2000/svg" xmlns:xlink="http://www.w3.org/1999/xlink" version="1.1" width="3168.5393258426966" height="973.3804424157304" viewBox="0 0 3168.5393258426966 973.3804424157304">
			
			<g transform="scale(8.426966292134832) translate(10, 10)">
				<defs id="SvgjsDefs2801"/><g id="SvgjsG2802" featureKey="symbolFeature-0" transform="matrix(1.4285714285714286,0,0,1.4285714285714286,-21.429169518607004,-23.67466517857143)" fill="#000"><g xmlns="http://www.w3.org/2000/svg"><path d="M62.5209274,59.9775391c-2.3837891-0.1357422-4.671875,0.6923828-6.4101563,2.3339844   c-1.7138672,1.6191406-2.6972656,3.8994141-2.6972656,6.3105469c0.0078125,1.171875,0.6142578,2.2373047,1.6230469,2.8496094   c0.5615234,0.3408203,1.1904297,0.5126953,1.8212891,0.5126953c0.5498047,0,1.1015625-0.1298828,1.6132813-0.3916016   c2.0351563-1.0400391,5.0595703-1.0419922,7.0888672-0.0009766c1.1025391,0.5625,2.3847656,0.515625,3.4306641-0.1279297   c1.0283203-0.6337891,1.6386719-1.7353516,1.6318359-2.9462891c-0.0009766-0.2412109-0.0126953-0.4873047-0.0351563-0.7324219   C70.2142868,63.5751953,66.7474899,60.21875,62.5209274,59.9775391z M67.9418259,69.7607422   c-0.4443359,0.2744141-0.9960938,0.2958984-1.4697266,0.0498047c-2.59375-1.3261719-6.3144531-1.3271484-8.9121094,0.0009766   c-0.4755859,0.2451172-1.0332031,0.2265625-1.4853516-0.0498047c-0.4169922-0.2529297-0.6582031-0.6728516-0.6611328-1.1943359   c0-1.8349609,0.7353516-3.5410156,2.0703125-4.8017578c1.2392578-1.1708984,2.8359375-1.8027344,4.5322266-1.8027344   c0.1298828,0,0.2607422,0.0039063,0.3916016,0.0107422c3.2421875,0.1855469,5.9023438,2.7607422,6.1875,5.9892578   c0,0.0009766,0,0.0009766,0,0.0019531c0.0175781,0.1884766,0.0263672,0.3759766,0.0273438,0.5634766   C68.6254196,69.0429688,68.3773727,69.4921875,67.9418259,69.7607422z"/><path d="M62.0179977,58.9375c2.0683594,0,3.7519531-1.6835938,3.7519531-3.7519531s-1.6835938-3.7519531-3.7519531-3.7519531   s-3.7519531,1.6835938-3.7519531,3.7519531S59.9496384,58.9375,62.0179977,58.9375z M62.0179977,53.4335938   c0.9658203,0,1.7519531,0.7861328,1.7519531,1.7519531S62.9838181,56.9375,62.0179977,56.9375   s-1.7519531-0.7861328-1.7519531-1.7519531S61.0521774,53.4335938,62.0179977,53.4335938z"/><path d="M66.4613571,60.5722656c0.6289063,0.6289063,1.4638672,0.9746094,2.3535156,0.9746094   c0.8886719,0,1.7236328-0.3457031,2.3525391-0.9746094s0.9746094-1.4638672,0.9746094-2.3525391   c0-0.8896484-0.3457031-1.7246094-0.9746094-2.3535156c-1.2978516-1.2978516-3.4101563-1.2958984-4.7060547,0   C65.1635056,57.1640625,65.1635056,59.2744141,66.4613571,60.5722656z M67.8754196,57.2802734   c0.2587891-0.2587891,0.5986328-0.3886719,0.9384766-0.3886719c0.3408203,0,0.6806641,0.1298828,0.9394531,0.3886719   c0.5175781,0.5175781,0.5175781,1.3603516,0,1.8779297c-0.5166016,0.5166016-1.359375,0.5185547-1.8779297,0   C67.3578415,58.640625,67.3578415,57.7978516,67.8754196,57.2802734z"/><path d="M55.2211227,61.5449219c0.8886719,0,1.7236328-0.3457031,2.3525391-0.9746094s0.9746094-1.4638672,0.9746094-2.3525391   s-0.3457031-1.7246094-0.9746094-2.3525391c-1.2587891-1.2587891-3.4501953-1.2578125-4.7050781,0   c-0.6289063,0.6279297-0.9746094,1.4628906-0.9746094,2.3525391c0,0.8886719,0.3457031,1.7236328,0.9746094,2.3525391   C53.4965134,61.1992188,54.3314743,61.5449219,55.2211227,61.5449219z M54.2826462,57.2792969   c0.2509766-0.2509766,0.5839844-0.3886719,0.9384766-0.3886719s0.6875,0.1376953,0.9384766,0.3886719   s0.3886719,0.5839844,0.3886719,0.9384766s-0.1376953,0.6875-0.3886719,0.9384766   c-0.5019531,0.5019531-1.375,0.5019531-1.8769531,0c-0.2509766-0.2509766-0.3886719-0.5839844-0.3886719-0.9384766   S54.0316696,57.5302734,54.2826462,57.2792969z"/><path d="M85.0004196,41.1621094V37.171875c0-0.1328125-0.0263672-0.2636719-0.0771484-0.3857422l-6.7705078-16.2001953   c-1.0185547-2.4384766-3.3789063-4.0136719-6.0126953-4.0136719H27.8597927c-2.6337891,0-4.9941406,1.5751953-6.0126953,4.0136719   l-6.7695303,16.2001953c-0.0507813,0.1220703-0.0771484,0.2529297-0.0771484,0.3857422v3.9902344   c0,3.1079102,2.1253653,5.7442017,5.0400381,6.4615479v28.1295776c-1.9291992,0.5151978-3.3613281,2.2607422-3.3613281,4.3493042   v2.3251953c0,0.5527344,0.4472656,1,1,1h64.6416016c0.5527344,0,1-0.4472656,1-1v-2.3251953   c0-2.0884399-1.4318848-3.8338623-3.3603516-4.3491821V47.6200562   C82.8873825,46.890564,85.0004196,44.2608032,85.0004196,41.1621094z M17.0004177,41.1621094v-3.7900391l6.6923828-16.0146484   c0.7070313-1.6923828,2.3417969-2.7851563,4.1669922-2.7851563h44.2802734c1.8251953,0,3.4599609,1.0927734,4.1669922,2.7851563   l6.6933594,16.0146484v3.7900391c0,2.3837891-1.7832031,4.3769531-4.1826172,4.6396484   c-0.1621094,0.0234375-0.3251953,0.0302734-0.4873047,0.0302734c-2.5693359,0-4.6601563-2.0947266-4.6601563-4.6699219   c0-0.5527344-0.4472656-1-1-1s-1,0.4472656-1,1c0,2.5751953-2.0947266,4.6699219-4.6699219,4.6699219   s-4.6699219-2.0947266-4.6699219-4.6699219c0-0.5527344-0.4472656-1-1-1s-1,0.4472656-1,1   c0,1.2470703-0.4853516,2.4199219-1.3710938,3.3056641c-0.8710938,0.8798828-2.0390625,1.3642578-3.2890625,1.3642578   c-2.5751953,0-4.6699219-2.0947266-4.6699219-4.6699219c0-0.5527344-0.4472656-1-1-1s-1,0.4472656-1,1   c0,2.5751953-2.0947266,4.6699219-4.6699219,4.6699219c-2.5693359,0-4.6601563-2.0947266-4.6601563-4.6699219   c0-0.5527344-0.4472656-1-1-1s-1,0.4472656-1,1c0,2.5751953-2.0947266,4.6699219-4.6699219,4.6699219   s-4.6699238-2.0947266-4.6699238-4.6699219c0-0.5527344-0.4472656-1-1-1s-1,0.4472656-1,1   c0,2.5751953-2.0908203,4.6699219-4.6601563,4.6699219c-0.1621094,0-0.3251953-0.0068359-0.5214844-0.0341797   C18.7836208,45.5390625,17.0004177,43.5458984,17.0004177,41.1621094z M22.6960964,47.7449341   c0.1563721-0.024353,0.3092041-0.0571899,0.461792-0.0922852c0.1201172-0.0275879,0.2401123-0.0539551,0.357666-0.0880127   c0.1503906-0.0435791,0.2961426-0.0963135,0.4421387-0.1500854c0.112793-0.0415649,0.2263184-0.0806274,0.3361816-0.1280518   c0.1430664-0.0617676,0.2802734-0.1330566,0.4179688-0.2044067c0.1051025-0.0543213,0.2116699-0.1052246,0.3134766-0.164917   c0.1345215-0.0789795,0.2617188-0.1679077,0.3900146-0.2559204c0.0958252-0.0656128,0.1942139-0.1269531,0.286377-0.1973877   c0.1270752-0.0971069,0.2449951-0.2045288,0.364624-0.3103638c0.0830078-0.0734863,0.1702881-0.1419678,0.2495117-0.2194214   c0.1245117-0.12146,0.2375488-0.253418,0.3520508-0.3841553c0.0637207-0.0726929,0.1330566-0.1400757,0.1937256-0.2155151   c0.1691895-0.2106934,0.3267822-0.4310303,0.4698486-0.6615601c1.1777344,1.8955078,3.2783203,3.1591797,5.6689472,3.1591797   s4.4912109-1.2636719,5.6689453-3.1591797c1.1757813,1.8955078,3.2744141,3.1591797,5.6611328,3.1591797   c2.3916016,0,4.4921875-1.2646484,5.6699219-3.1601563c1.1777344,1.8955078,3.2783203,3.1601563,5.6699219,3.1601563   c1.7880859,0,3.4609375-0.6943359,4.7070313-1.953125c0.3681641-0.3681641,0.6875-0.7714844,0.9560547-1.203125   c1.1777344,1.8935547,3.2773438,3.15625,5.6669922,3.15625c2.390625,0,4.4912109-1.2636719,5.6689453-3.1591797   c0.1430664,0.2305298,0.3006592,0.4508667,0.4698486,0.6615601c0.0603027,0.0750732,0.1292725,0.1420288,0.192749,0.2144165   c0.1149902,0.1312866,0.2285156,0.2636719,0.3532715,0.3855591c0.0788574,0.0769653,0.1655273,0.1450195,0.2480469,0.2180786   c0.1199951,0.1062012,0.2382813,0.2139282,0.3658447,0.3114014c0.0921631,0.0704346,0.1905518,0.1317749,0.286377,0.1973877   c0.1282959,0.0880127,0.2554932,0.1769409,0.3900146,0.2559204c0.1018066,0.0596924,0.208374,0.1105957,0.3134766,0.164917   c0.1376953,0.0713501,0.2749023,0.1426392,0.4179688,0.2044067c0.1098633,0.0474243,0.2232666,0.0864868,0.3359375,0.1279907   c0.1461182,0.053772,0.2919922,0.1065063,0.442627,0.1501465c0.1174316,0.0339966,0.2373047,0.0604248,0.3571777,0.0880127   c0.15271,0.0351563,0.3056641,0.0679321,0.4620361,0.0922852c0.1236572,0.0192871,0.2489014,0.0318604,0.3747559,0.0441895   c0.0941162,0.0092163,0.1856689,0.0278931,0.2808838,0.0331421v27.7597656H45.678154v-20.375   c0-1.8359375-1.4941406-3.3300781-3.3300781-3.3300781h-9.9638672c-1.836916,0-3.3310566,1.4941406-3.3310566,3.3300781v20.375   h-7.0126953V47.8222656c0.0952148-0.005249,0.1867676-0.0239258,0.2808838-0.0331421   C22.4471951,47.7767944,22.5723171,47.7642212,22.6960964,47.7449341z M31.0531521,75.5820313v-20.375   c0-0.7333984,0.5966797-1.3300781,1.3310566-1.3300781h9.9638672c0.7333984,0,1.3300781,0.5966797,1.3300781,1.3300781v20.375   H31.0531521z M81.3207321,80.1025391v1.3251953H18.6791286v-1.3251953c0-1.3886719,1.1298828-2.5185547,2.5195313-2.5185547   h8.8544922H44.678154h34.1240234C80.1908493,77.5839844,81.3207321,78.7138672,81.3207321,80.1025391z"/><path d="M41.8929977,23.5722656h0.9638672c0.5527344,0,1-0.4472656,1-1s-0.4472656-1-1-1h-0.9638672c-0.5527344,0-1,0.4472656-1,1   S41.3402634,23.5722656,41.8929977,23.5722656z"/><path d="M25.2523708,27.9980469c0.1259766,0.0527344,0.2568359,0.0771484,0.3857422,0.0771484   c0.390625,0,0.7626953-0.2304688,0.9228516-0.6142578l1.1962891-2.8613281   c0.2607422-0.6240234,0.8652344-1.0273438,1.5419922-1.0273438h7.1289082c0.5527344,0,1-0.4472656,1-1s-0.4472656-1-1-1h-7.1289082   c-1.4853516,0-2.8154297,0.8857422-3.3876953,2.2558594l-1.1962891,2.8613281   C24.5023708,27.1992188,24.7426052,27.7851563,25.2523708,27.9980469z"/></g></g><g id="SvgjsG2803" featureKey="textGroupContainer" transform="matrix(1,0,0,1,355,14)" fill="#000"><rect xmlns="http://www.w3.org/2000/svg" y="0" height="1" width="1" opacity="0"/><rect xmlns="http://www.w3.org/2000/svg" y="0" x="-235" width="3" height="68"/></g><g id="SvgjsG2804" featureKey="nameFeature-0" transform="matrix(1.0941075938689842,0,0,1.0941075938689842,134.45628114772114,20.8257852024185)" fill="#000"><path d="M15.4 11.8 c0 -2.64 4.28 -2.8 4.4 0 c0.4 9.28 -0.44 16.96 -0.16 26.24 c0.08 2.76 -4.24 2.92 -4.36 0 c-0.2 -5.28 0.04 -8.52 0.08 -13.8 c-2.8 0.2 -4.96 -0.52 -7.64 0.16 c-0.08 5.16 0 8.32 -0.12 13.48 c-0.08 3.12 -4.44 3 -4.36 0 c0.24 -9.12 -0.2 -16.64 0.16 -25.76 c0.12 -2.88 4.48 -2.96 4.36 0 c-0.12 3 0 4.8 0 7.84 c2.76 -0.44 4.8 0.32 7.6 -0.04 c0.04 -3.12 0.04 -5 0.04 -8.12 z M42.72 11.96 c0.16 4.16 0.16 7.52 0.08 11.68 c-0.04 3.92 0.36 9.08 -0.56 12.44 c-0.8 3 -4.92 4.2 -8.16 4.2 c-2.12 0 -5.04 -1.12 -6.08 -2.96 c-1.08 -1.96 -1.2 -4.64 -1.2 -6.8 c-0.04 -2.2 0 -4.4 -0.04 -6.64 c-0.04 -4.28 0.08 -7.76 0.24 -12.04 c0.12 -2.88 4.48 -3.2 4.36 0 c-0.16 4.16 -0.28 7.56 -0.24 11.72 c0.04 2.12 0.04 4.2 0.08 6.28 c0.04 3.08 0.04 6.08 2.88 6.12 c4.16 0.04 4.24 -2.72 4.24 -5.24 c-0.04 -2.2 0 -4.44 0.04 -6.64 c0.08 -4.32 0.12 -7.8 0 -12.12 c-0.08 -2.72 4.28 -3.04 4.36 0 z M62.68 35.68 c2.96 -0.32 3 4.24 0 4.36 c-3.52 0.16 -8.8 0.12 -12.36 0.32 c-0.36 0.04 -0.6 -0.08 -0.84 -0.2 c-0.52 -0.16 -0.92 -0.56 -0.88 -1.28 c0.52 -9.04 -0.16 -18.12 0.12 -27.16 c-0.24 -0.8 0.2 -1.8 1.24 -1.72 c3.6 0.2 8.92 0.24 12.52 0.12 c2.8 -0.08 2.84 4.28 0 4.36 c-3.12 0.08 -6.24 0 -9.32 -0.08 c-0.08 4.12 -0.12 1.08 -0.04 5.2 c2.16 0.72 4.8 0.4 7.08 0.32 c2.96 -0.12 3 4.64 0 4.72 c-2.24 0.04 -4.8 0.36 -7.04 -0.16 c0 3.16 0.12 8.32 -0.04 11.48 c3.2 -0.08 6.4 0.08 9.56 -0.28 z M85.16000000000001 35.44 c3.16 -0.24 3.32 4.08 0 4.36 l-11.16 0 c-0.68 0.24 -1.52 0.04 -1.76 -0.64 c-0.24 -0.44 -0.24 -0.96 -0.04 -1.4 c0.64 -8.8 -0.08 -16.96 -0.2 -25.76 c-0.04 -2.96 4.32 -3.12 4.36 0 c0.12 8.6 0.8 14.88 0.24 23.44 l8.56 0 z M107.80000000000001 35.44 c3.16 -0.24 3.32 4.08 0 4.36 l-11.16 0 c-0.68 0.24 -1.52 0.04 -1.76 -0.64 c-0.24 -0.44 -0.24 -0.96 -0.04 -1.4 c0.64 -8.8 -0.08 -16.96 -0.2 -25.76 c-0.04 -2.96 4.32 -3.12 4.36 0 c0.12 8.6 0.8 14.88 0.24 23.44 l8.56 0 z M121.64000000000001 12.120000000000001 c0.28 9.16 0.72 16.72 0.12 25.88 c-0.2 3.04 -4.56 2.92 -4.36 0 c0.64 -9.16 0 -16.72 -0.12 -25.88 c-0.04 -3.04 4.32 -2.84 4.36 0 z M143.88 9.879999999999999 c3 0.08 3.28 4.56 0 4.36 c-1.92 -0.12 -3 0 -4.88 0 c-0.28 8.88 -0.48 15.12 -0.36 23.84 c0.04 3 -4.36 2.68 -4.36 0 c0 -8.72 0.08 -14.96 0.36 -23.8 c-1.84 0.04 -2.88 0.16 -4.68 0.08 c-2.92 -0.16 -2.92 -4.52 0 -4.36 c4.64 0.24 9.28 -0.2 13.92 -0.12 z M164.84000000000003 37.8 c0.56 2.48 -3.44 3.36 -4.16 1.08 c-0.52 -1.68 -0.6 -2.72 -0.88 -4.48 c-2.56 0.12 -4.48 0.08 -7.04 -0.16 c-0.44 1.64 -0.72 2.88 -1.16 4.48 c-0.72 2.56 -4.68 1.48 -3.88 -1.64 c2.32 -9.08 3.96 -16.48 6.48 -25.52 c0 -0.36 0.6 -2 2.72 -2 c1.92 0 2.68 0.88 2.92 1.88 c3.08 9.04 2.88 17.12 5 26.36 z M153.88000000000002 29.92 c2.2 0.2 2.88 0.2 5.08 0.16 c-0.8 -5.12 -0.68 -8.28 -1.92 -13.28 c-1.36 5.04 -1.88 8.08 -3.16 13.12 z M181.04000000000002 24.92 c2.68 2.68 6.12 6.52 4.64 10.6 c-1.44 4 -7.52 5.36 -10.92 4.12 c-3.48 -1.28 -5.52 -4.84 -5.12 -7.92 c0.44 -3.24 4.56 -2.28 4.68 0.72 c0.16 4.8 6.92 3.52 6.96 1.12 c0.04 -2 -0.96 -3 -2.08 -4.24 c-1.64 -1.72 -3.44 -3.2 -4.92 -5.08 c-1.84 -2.32 -3.48 -4.36 -3.4 -8.96 c0.16 -9.2 17.6 -7.36 14.84 2.6 c-0.84 3.04 -4.96 2.08 -4.24 -0.72 c1.24 -4.76 -6.24 -5.16 -6.24 -0.72 c0 1.28 0.44 2.2 1.08 3.32 c1.24 2.24 2.92 3.36 4.72 5.16 z"/></g>
			</g>
		</svg>
	